<svg width="30" height="30" viewBox="0 0 30 30" xmlns="http://www.w3.org/2000/svg"><title>twitter</title><path d="M15 0c4.144 0 7.68 1.464 10.608 4.392C28.536 7.322 30 10.856 30 15s-1.464 7.68-4.392 10.608C22.678 28.536 19.144 30 15 30s-7.68-1.464-10.608-4.392C1.464 22.678 0 19.144 0 15S1.464 7.32 4.392 4.392C7.322 1.464 10.856 0 15 0zm9.132 11.7c.764-.53 1.47-1.26 2.118-2.186a9.085 9.085 0 0 1-2.465.66c.903-.51 1.516-1.297 1.84-2.36a9.715 9.715 0 0 1-2.674 1.04C22.12 7.95 21.09 7.5 19.86 7.5c-1.18 0-2.18.417-3.002 1.25-.822.833-1.233 1.84-1.233 3.02 0 .348.035.672.104.973-3.59-.185-6.53-1.678-8.82-4.48a4.52 4.52 0 0 0-.556 2.154c0 1.527.625 2.708 1.875 3.54-.65 0-1.286-.172-1.91-.52v.035c0 1.02.324 1.922.972 2.71.648.786 1.458 1.283 2.43 1.492-.3.092-.67.14-1.11.14-.21-.002-.475-.025-.8-.07a3.806 3.806 0 0 0 1.476 2.065 4.36 4.36 0 0 0 2.483.815C10.128 21.92 8.37 22.57 6.494 22.57c-.255 0-.59-.024-1.007-.07 1.92 1.25 4.097 1.875 6.528 1.875 1.875 0 3.6-.365 5.174-1.094 1.574-.728 2.853-1.683 3.836-2.863a13.774 13.774 0 0 0 2.292-3.89c.544-1.41.816-2.835.816-4.27V11.7z" fill="#1E3B69" fill-rule="evenodd"/></svg>