<svg width="30" height="30" viewBox="0 0 30 30" xmlns="http://www.w3.org/2000/svg"><title>linkedin</title><path d="M15 0c4.144 0 7.68 1.464 10.608 4.392C28.536 7.322 30 10.856 30 15s-1.464 7.68-4.392 10.608C22.678 28.536 19.144 30 15 30s-7.68-1.464-10.608-4.392C1.464 22.678 0 19.144 0 15S1.464 7.32 4.392 4.392C7.322 1.464 10.856 0 15 0zm-4.375 22.5V11.875h-3.75V22.5h3.75zM8.75 10c.74 0 1.343-.208 1.806-.625.463-.417.694-.937.694-1.563-.023-.648-.26-1.174-.712-1.58-.45-.404-1.047-.607-1.788-.607-.74 0-1.343.208-1.806.625a2.015 2.015 0 0 0-.694 1.563c0 .625.226 1.145.677 1.562.45.417 1.048.625 1.788.625h.035zm15.625 12.5v-5.625c0-1.713-.394-3.08-1.18-4.097-.788-1.02-1.852-1.528-3.195-1.528-.74 0-1.383.203-1.927.608-.544.405-.943.954-1.198 1.65l-.14-1.633h-3.714l.105 2.5V22.5h3.75v-5.625c0-.764.162-1.372.486-1.823.325-.45.777-.677 1.355-.677 1.273 0 1.91.833 1.91 2.5V22.5h3.75z" fill="#1E3B69" fill-rule="evenodd"/></svg>