<svg width="18" height="18" viewBox="0 0 18 18" xmlns="http://www.w3.org/2000/svg"><title>phone</title><path d="M17.98 2.297c-.515 4.096-2.236 7.605-5.166 10.528-2.93 2.922-6.435 4.64-10.517 5.154a.46.46 0 0 1-.145.02.357.357 0 0 1-.146-.02.5.5 0 0 1-.208-.21l-1.77-4.456c-.07-.222-.008-.382.187-.48L5.13 10.38c.14-.084.284-.063.437.062l2.395 2.416c1.985-1.236 3.61-2.867 4.873-4.894L10.44 5.567c-.125-.153-.146-.298-.062-.437L12.835.215c.097-.195.257-.257.48-.188l4.456 1.77c.098.056.16.126.188.21A.336.336 0 0 1 18 2.15a.46.46 0 0 1-.02.145z" fill="#1E3B69" fill-rule="evenodd"/></svg>