<svg width="31" height="30" viewBox="0 0 31 30" xmlns="http://www.w3.org/2000/svg"><title>googleplus</title><path d="M6.874 22.535h1.452c-.76-.81-1.14-1.597-1.14-2.36 0-.51.138-1.043.414-1.6h-.76c-1.545 0-2.876-.404-3.994-1.214C1.728 16.55.984 15.5.616 14.2c-.024.187-.035.453-.035.8 0 2.986.82 5.74 2.456 8.264 1.222-.486 2.5-.73 3.838-.73zM3.416 12.36c.185 1.436.732 2.68 1.643 3.734.91 1.053 1.906 1.59 2.99 1.614 1.083.047 1.948-.434 2.593-1.44.646-1.008.876-2.23.692-3.664-.185-1.435-.732-2.662-1.643-3.68-.91-1.02-1.92-1.55-3.025-1.598-1.084-.046-1.942.423-2.576 1.407-.633.983-.858 2.193-.674 3.628zm9.96 15.522c0-.3-.036-.59-.105-.868-.045-.208-.108-.4-.19-.573a2.267 2.267 0 0 0-.345-.52 31.72 31.72 0 0 0-.38-.434 4 4 0 0 0-.52-.45 8.863 8.863 0 0 0-.552-.4c-.127-.082-.357-.238-.692-.47-.333-.23-.57-.393-.708-.485a7.045 7.045 0 0 0-2.11-.347 7.403 7.403 0 0 0-3.94 1.042c2.374 2.986 5.428 4.792 9.162 5.417.254-.533.38-1.17.38-1.91zM15.518 0c-2.93 0-5.603.78-8.023 2.344-2.42 1.562-4.242 3.628-5.464 6.198 1.568-1.62 3.47-2.43 5.706-2.43h8.505L14.343 7.5h-2.697c.876.324 1.55.943 2.023 1.858.47.914.708 1.938.708 3.073 0 1.737-.796 3.23-2.386 4.48-.67.532-1.107.955-1.314 1.267-.208.313-.31.7-.31 1.163 0 .348.24.787.725 1.32.484.532.98.984 1.487 1.354 1.106.787 1.884 1.59 2.334 2.413.45.822.674 1.858.674 3.108 0 .81-.22 1.632-.657 2.465h.59c4.125 0 7.646-1.464 10.562-4.392 2.916-2.93 4.374-6.464 4.374-10.608s-1.458-7.68-4.374-10.608C23.166 1.464 19.645 0 15.52 0zm7.468 15H21.12v-3.75h-3.734V9.375h3.734v-3.75h1.868v3.75h3.734v1.875h-3.734V15z" fill="#1E3B69" fill-rule="evenodd"/></svg>