<svg width="18" height="18" viewBox="0 0 18 18" xmlns="http://www.w3.org/2000/svg"><title>search</title><path d="M11.25 0c1.86 0 3.45.66 4.77 1.98C17.34 3.3 18 4.89 18 6.75c0 1.86-.66 3.45-1.98 4.77-1.32 1.32-2.91 1.98-4.77 1.98a6.54 6.54 0 0 1-3.604-1.042l-5.083 5.104A1.447 1.447 0 0 1 1.5 18c-.417 0-.77-.146-1.063-.438A1.447 1.447 0 0 1 0 16.5c0-.417.146-.77.438-1.063l5.104-5.083A6.54 6.54 0 0 1 4.5 6.75c0-1.86.66-3.45 1.98-4.77C7.8.66 9.39 0 11.25 0zm0 11.25c1.236 0 2.295-.44 3.177-1.323.882-.882 1.323-1.94 1.323-3.177 0-1.236-.44-2.295-1.323-3.177-.882-.882-1.94-1.323-3.177-1.323-1.236 0-2.295.44-3.177 1.323-.882.882-1.323 1.94-1.323 3.177 0 1.236.44 2.295 1.323 3.177.882.882 1.94 1.323 3.177 1.323z" fill="#FFF" fill-rule="evenodd"/></svg>