<svg width="32" height="32" viewBox="0 0 32 32" xmlns="http://www.w3.org/2000/svg"><title>linkedin</title><path d="M.667 10.667h6.666v20.666H.667V10.667zm10.666 20.666v-16l-.11-4.666h6.555L18 13.52c1.556-2.347 3.556-3.52 6-3.52 2.395 0 4.327.82 5.796 2.463 1.47 1.642 2.204 3.932 2.204 6.87v12h-6.667V20c0-1.58-.333-2.753-1-3.52-.666-.764-1.543-1.147-2.63-1.147-1.06 0-1.944.346-2.647 1.037-.704.692-1.056 1.68-1.056 2.963v12h-6.667zm-7.37-24h-.037c-1.16 0-2.105-.352-2.833-1.055C.363 5.574 0 4.704 0 3.668c0-1.063.37-1.94 1.11-2.63C1.853.345 2.828 0 4.038 0 5.222 0 6.173.346 6.89 1.037c.715.69 1.085 1.568 1.11 2.63 0 1.037-.37 1.907-1.11 2.61-.742.704-1.717 1.056-2.927 1.056z" fill="#000" fill-rule="evenodd"/></svg>