<svg width="32" height="26" viewBox="0 0 32 26" xmlns="http://www.w3.org/2000/svg"><title>twitter</title><path d="M28.74 6.48v.853a18.88 18.88 0 0 1-3.092 10.315 19.455 19.455 0 0 1-3.76 4.278c-1.456 1.235-3.203 2.222-5.24 2.963-2.037.74-4.228 1.11-6.574 1.11-3.95 0-7.31-.89-10.074-2.667.52.074 1.037.11 1.556.11 2.84 0 5.555-1.036 8.148-3.11a6.316 6.316 0 0 1-3.797-1.314c-1.123-.853-1.895-1.934-2.314-3.242a6.868 6.868 0 0 0 2.963-.11c-1.507-.298-2.76-1.05-3.76-2.26-1-1.21-1.5-2.606-1.5-4.186.94.445 1.926.716 2.963.74C2.31 8.655 1.332 6.84 1.332 4.52c0-1.088.297-2.15.89-3.187 1.654 2 3.647 3.587 5.98 4.76 2.334 1.172 4.846 1.833 7.538 1.98-.098-.42-.147-.925-.147-1.517 0-1.803.635-3.346 1.907-4.63C18.772.642 20.32 0 22.148 0c1.877 0 3.482.69 4.815 2.074A13.493 13.493 0 0 0 31.11.48c-.493 1.582-1.456 2.792-2.888 3.63 1.26-.147 2.52-.493 3.778-1.036a13.373 13.373 0 0 1-3.26 3.407z" fill="#000" fill-rule="evenodd"/></svg>