<svg width="30" height="30" viewBox="0 0 30 30" xmlns="http://www.w3.org/2000/svg"><title>email</title><path d="M15 0c4.12 0 7.65 1.47 10.59 4.41C28.53 7.35 30 10.88 30 15c0 4.144-1.464 7.68-4.392 10.608C22.678 28.536 19.144 30 15 30s-7.68-1.464-10.608-4.392C1.464 22.678 0 19.144 0 15S1.464 7.32 4.392 4.392C7.322 1.464 10.856 0 15 0zm9.375 20.694v-8.958L15 18.75l-9.375-7.014v8.958c0 .325.116.602.347.834.232.23.51.347.834.347h16.388c.325 0 .602-.116.834-.347.23-.232.347-.51.347-.834zM15 16.32l9.375-7.014c0-.325-.116-.602-.347-.834-.232-.23-.51-.347-.834-.347H6.806c-.325 0-.602.116-.834.347-.23.232-.347.51-.347.834L15 16.32z" fill="#1E3B69" fill-rule="evenodd"/></svg>