<svg width="30" height="30" viewBox="0 0 30 30" xmlns="http://www.w3.org/2000/svg"><title>facebook</title><path d="M15 0c4.12 0 7.65 1.47 10.59 4.41C28.53 7.35 30 10.88 30 15c0 4.144-1.464 7.68-4.392 10.608C22.678 28.536 19.144 30 15 30s-7.68-1.464-10.608-4.392C1.464 22.678 0 19.144 0 15S1.464 7.32 4.392 4.392C7.322 1.464 10.856 0 15 0zm1.25 12.535v-2.71c0-.577.098-1.006.295-1.283.197-.278.608-.417 1.233-.417h2.048L20 4.583c-.694-.14-1.644-.208-2.847-.208-1.736 0-3.05.45-3.94 1.354-.892.902-1.338 2.025-1.338 3.367V12.5h-2.5v3.75h2.5v9.375h4.375V16.25h3.507L20 12.535h-3.75z" fill="#1E3B69" fill-rule="evenodd"/></svg>