<?xml version="1.0" encoding="UTF-8" standalone="no"?>
<svg width="18px" height="18px" viewBox="0 0 18 18" version="1.1" xmlns="http://www.w3.org/2000/svg" xmlns:xlink="http://www.w3.org/1999/xlink">
    <!-- Generator: Sketch 3.6.1 (26313) - http://www.bohemiancoding.com/sketch -->
    <title>search</title>
    <desc>Created with Sketch.</desc>
    <defs></defs>
    <g id="Home" stroke="none" stroke-width="1" fill="none" fill-rule="evenodd">
        <g id="home-v1" transform="translate(-1373.000000, -39.000000)" fill="#FFFFFF">
            <g id="Header">
                <g id="Search" transform="translate(1364.000000, 30.000000)">
                    <path d="M20.25,9 C22.1111204,9 23.7013823,9.65971563 25.0208333,10.9791667 C26.3402844,12.2986177 27,13.8888796 27,15.75 C27,17.6111204 26.3402844,19.2013823 25.0208333,20.5208333 C23.7013823,21.8402844 22.1111204,22.5 20.25,22.5 C18.930549,22.5 17.7291721,22.1527813 16.6458333,21.4583333 L11.5625,26.5625 C11.2708319,26.8541681 10.9166688,27 10.5,27 C10.0833312,27 9.72916812,26.8541681 9.4375,26.5625 C9.14583188,26.2708319 9,25.9166687 9,25.5 C9,25.0833313 9.14583188,24.7291681 9.4375,24.4375 L14.5416667,19.3541667 C13.8472187,18.2708279 13.5,17.069451 13.5,15.75 C13.5,13.8888796 14.1597156,12.2986177 15.4791667,10.9791667 C16.7986177,9.65971563 18.3888796,9 20.25,9 L20.25,9 Z M20.25,20.25 C21.4861173,20.25 22.5451345,19.8090322 23.4270833,18.9270833 C24.3090322,18.0451345 24.75,16.9861173 24.75,15.75 C24.75,14.5138827 24.3090322,13.4548655 23.4270833,12.5729167 C22.5451345,11.6909678 21.4861173,11.25 20.25,11.25 C19.0138827,11.25 17.9548655,11.6909678 17.0729167,12.5729167 C16.1909678,13.4548655 15.75,14.5138827 15.75,15.75 C15.75,16.9861173 16.1909678,18.0451345 17.0729167,18.9270833 C17.9548655,19.8090322 19.0138827,20.25 20.25,20.25 L20.25,20.25 Z" id="search"></path>
                </g>
            </g>
        </g>
    </g>
</svg>