<?xml version="1.0" encoding="UTF-8" standalone="no"?>
<svg width="31px" height="30px" viewBox="0 0 31 30" version="1.1" xmlns="http://www.w3.org/2000/svg" xmlns:xlink="http://www.w3.org/1999/xlink">
    <!-- Generator: Sketch 3.6.1 (26313) - http://www.bohemiancoding.com/sketch -->
    <title>googleplus</title>
    <desc>Created with Sketch.</desc>
    <defs></defs>
    <g id="Home" stroke="none" stroke-width="1" fill="none" fill-rule="evenodd">
        <g id="home-v1" transform="translate(-580.000000, -2850.000000)" fill="#1E3B69">
            <g id="Footer" transform="translate(0.000000, 2747.000000)">
                <path d="M586.874136,125.534722 L588.326418,125.534722 C587.565695,124.724533 587.185339,123.937504 587.185339,123.173611 C587.185339,122.664349 587.32365,122.131947 587.600277,121.576389 L586.839557,121.576389 C585.295059,121.576389 583.963814,121.1713 582.845781,120.361111 C581.727749,119.550922 580.984326,118.497692 580.615491,117.201389 C580.592439,117.386575 580.580913,117.652776 580.580913,118 C580.580913,120.986126 581.399254,123.740728 583.035961,126.263889 C584.257729,125.777775 585.537107,125.534722 586.874136,125.534722 L586.874136,125.534722 Z M583.416321,115.361111 C583.600739,116.796303 584.14822,118.040504 585.058783,119.09375 C585.969345,120.146996 586.966339,120.685185 588.049793,120.708333 C589.133247,120.75463 589.997692,120.274311 590.643154,119.267361 C591.288615,118.260412 591.519134,117.039359 591.334716,115.604167 C591.150299,114.168974 590.602817,112.942135 589.692254,111.923611 C588.781692,110.905088 587.773173,110.372685 586.666667,110.326389 C585.583213,110.280092 584.724531,110.748838 584.090595,111.732639 C583.456659,112.71644 583.231903,113.925919 583.416321,115.361111 L583.416321,115.361111 Z M593.374827,130.881944 C593.374827,130.581017 593.340249,130.291668 593.271093,130.013889 C593.224988,129.805555 593.161596,129.614584 593.080913,129.440972 C593.00023,129.26736 592.884971,129.093751 592.735131,128.920139 C592.585292,128.746527 592.458507,128.601852 592.354772,128.486111 C592.251037,128.37037 592.078148,128.219908 591.8361,128.034722 C591.594051,127.849536 591.409636,127.716436 591.282849,127.635417 C591.156062,127.554398 590.925543,127.398149 590.591286,127.166667 C590.257029,126.935184 590.020748,126.773149 589.882434,126.680556 C589.144763,126.449073 588.441682,126.333333 587.773167,126.333333 C586.366982,126.310185 585.053026,126.657404 583.831259,127.375 C586.205637,130.361126 589.260009,132.166664 592.994467,132.791667 C593.248042,132.259257 593.374827,131.622689 593.374827,130.881944 L593.374827,130.881944 Z M595.518672,103 C592.591041,103 589.917025,103.781242 587.496542,105.34375 C585.07606,106.906258 583.254962,108.972209 582.033195,111.541667 C583.600746,109.921288 585.502525,109.111111 587.738589,109.111111 L596.244813,109.111111 L594.343015,110.5 L591.64592,110.5 C592.521904,110.824076 593.196171,111.443282 593.668741,112.357639 C594.141312,113.271995 594.377593,114.296291 594.377593,115.430556 C594.377593,117.166675 593.582304,118.659716 591.991701,119.909722 C591.323187,120.442132 590.885202,120.864582 590.677732,121.177083 C590.470262,121.489585 590.366528,121.877313 590.366528,122.340278 C590.366528,122.687502 590.608573,123.127312 591.092669,123.659722 C591.576766,124.192132 592.072381,124.643517 592.57953,125.013889 C593.686036,125.80093 594.464036,126.60532 594.913555,127.427083 C595.363073,128.248847 595.587828,129.284716 595.587828,130.534722 C595.587828,131.344911 595.368836,132.166662 594.930844,133 L595.518672,133 C599.645018,133 603.166191,131.535894 606.082296,128.607639 C608.998401,125.679384 610.456432,122.143539 610.456432,118 C610.456432,113.856461 608.998401,110.320616 606.082296,107.392361 C603.166191,104.464106 599.645018,103 595.518672,103 L595.518672,103 Z M602.987552,118 L601.120332,118 L601.120332,114.25 L597.385892,114.25 L597.385892,112.375 L601.120332,112.375 L601.120332,108.625 L602.987552,108.625 L602.987552,112.375 L606.721992,112.375 L606.721992,114.25 L602.987552,114.25 L602.987552,118 Z" id="googleplus"></path>
            </g>
        </g>
    </g>
</svg>