<?xml version="1.0" encoding="UTF-8" standalone="no"?>
<svg width="32px" height="32px" viewBox="0 0 32 32" version="1.1" xmlns="http://www.w3.org/2000/svg" xmlns:xlink="http://www.w3.org/1999/xlink">
    <!-- Generator: Sketch 3.6.1 (26313) - http://www.bohemiancoding.com/sketch -->
    <title>linkedin</title>
    <desc>Created with Sketch.</desc>
    <defs></defs>
    <g id="icons" stroke="none" stroke-width="1" fill="none" fill-rule="evenodd">
        <g id="32" fill="#000000">
            <path d="M0.666666667,10.6666667 L7.33333333,10.6666667 L7.33333333,31.3333333 L0.666666667,31.3333333 L0.666666667,10.6666667 Z M11.3333333,31.3333333 L11.3333333,15.3333333 L11.2222222,10.6666667 L17.7777778,10.6666667 L18,13.5185185 C19.5555633,11.1728278 21.5555433,10 24,10 C26.3950737,10 28.3271531,10.8209794 29.7962963,12.462963 C31.2654394,14.1049465 32,16.395047 32,19.3333333 L32,31.3333333 L25.3333333,31.3333333 L25.3333333,20 C25.3333333,18.4197452 25.0000033,17.2469174 24.3333333,16.4814815 C23.6666633,15.7160456 22.7901289,15.3333333 21.7037037,15.3333333 C20.64197,15.3333333 19.7592628,15.6790089 19.0555556,16.3703704 C18.3518483,17.0617319 18,18.0493763 18,19.3333333 L18,31.3333333 L11.3333333,31.3333333 Z M3.96296296,7.33333333 L3.92592593,7.33333333 C2.7654263,7.33333333 1.8209913,6.981485 1.09259259,6.27777778 C0.364193889,5.57407056 0,4.70370889 0,3.66666667 C0,2.60493296 0.370366667,1.72839852 1.11111111,1.03703704 C1.85185556,0.345675556 2.82715444,0 4.03703704,0 C5.22222815,0 6.17283593,0.345675556 6.88888889,1.03703704 C7.60494185,1.72839852 7.97530852,2.60493296 8,3.66666667 C8,4.70370889 7.62963333,5.57407056 6.88888889,6.27777778 C6.14814444,6.981485 5.17284556,7.33333333 3.96296296,7.33333333 L3.96296296,7.33333333 Z" id="linkedin"></path>
        </g>
    </g>
</svg>