<?xml version="1.0" encoding="UTF-8" standalone="no"?>
<svg width="30px" height="30px" viewBox="0 0 30 30" version="1.1" xmlns="http://www.w3.org/2000/svg" xmlns:xlink="http://www.w3.org/1999/xlink">
    <!-- Generator: Sketch 3.7.2 (28276) - http://www.bohemiancoding.com/sketch -->
    <title>twitter</title>
    <desc>Created with Sketch.</desc>
    <defs></defs>
    <g id="Author" stroke="none" stroke-width="1" fill="none" fill-rule="evenodd">
        <g id="author-v1" transform="translate(-116.000000, -455.000000)" fill="#1E3B69">
            <g id="Bio-Block" transform="translate(116.000000, 162.000000)">
                <g id="Social" transform="translate(-0.000000, 293.000000)">
                    <path d="M15,0 C19.1435392,0 22.6793835,1.46410573 25.6076389,4.39236111 C28.5358943,7.32061649 30,10.8564608 30,15 C30,19.1435392 28.5358943,22.6793835 25.6076389,25.6076389 C22.6793835,28.5358943 19.1435392,30 15,30 C10.8564608,30 7.32061649,28.5358943 4.39236111,25.6076389 C1.46410573,22.6793835 0,19.1435392 0,15 C0,10.8564608 1.46410573,7.32061649 4.39236111,4.39236111 C7.32061649,1.46410573 10.8564608,0 15,0 L15,0 Z M24.1319444,11.7013889 C24.8958372,11.1689788 25.6018486,10.4398194 26.25,9.51388889 C25.4166625,9.86111285 24.5949115,10.0810181 23.7847222,10.1736111 C24.6875045,9.66434931 25.3009243,8.87732014 25.625,7.8125 C24.7685142,8.29861354 23.8773194,8.64583229 22.9513889,8.85416667 C22.1180514,7.95138437 21.0879691,7.5 19.8611111,7.5 C18.6805497,7.5 17.6794023,7.9166625 16.8576389,8.75 C16.0358755,9.5833375 15.625,10.5902719 15.625,11.7708333 C15.625,12.1180573 15.6597219,12.4421281 15.7291667,12.7430556 C12.1411858,12.5578694 9.20140035,11.0648288 6.90972222,8.26388889 C6.53935,8.95833681 6.35416667,9.67592222 6.35416667,10.4166667 C6.35416667,11.9444521 6.97916042,13.1249958 8.22916667,13.9583333 C7.58101528,13.9583333 6.94444757,13.784724 6.31944444,13.4375 L6.31944444,13.4722222 C6.31944444,14.4907458 6.64351528,15.3935146 7.29166667,16.1805556 C7.93981806,16.9675965 8.74999514,17.4652767 9.72222222,17.6736111 C9.42129479,17.7662042 9.05092812,17.8125 8.61111111,17.8125 C8.40277674,17.8125 8.13657569,17.7893521 7.8125,17.7430556 C8.0671309,18.5995413 8.55902413,19.2881918 9.28819444,19.8090278 C10.0173648,20.3298637 10.8449028,20.6018517 11.7708333,20.625 C10.1273066,21.9213028 8.36806493,22.5694444 6.49305556,22.5694444 C6.23842465,22.5694444 5.90277986,22.5462965 5.48611111,22.5 C7.40741701,23.7500062 9.58332118,24.375 12.0138889,24.375 C13.8888983,24.375 15.6134181,24.0104203 17.1875,23.28125 C18.7615819,22.5520797 20.0405043,21.5972281 21.0243056,20.4166667 C22.0081068,19.2361052 22.771988,17.9398219 23.3159722,16.5277778 C23.8599564,15.1157337 24.1319444,13.6921368 24.1319444,12.2569444 L24.1319444,11.7013889 Z" id="twitter"></path>
                </g>
            </g>
        </g>
    </g>
</svg>