<?xml version="1.0" encoding="UTF-8" standalone="no"?>
<svg width="16px" height="32px" viewBox="0 0 16 32" version="1.1" xmlns="http://www.w3.org/2000/svg" xmlns:xlink="http://www.w3.org/1999/xlink">
    <!-- Generator: Sketch 3.6.1 (26313) - http://www.bohemiancoding.com/sketch -->
    <title>facebook</title>
    <desc>Created with Sketch.</desc>
    <defs></defs>
    <g id="icons" stroke="none" stroke-width="1" fill="none" fill-rule="evenodd">
        <g id="facebook" fill="#000000">
            <path d="M4,32 L4,17.3333333 L0,17.3333333 L0,12 L4,12 L4,7.33333333 C4,5.25924889 4.67283278,3.51852556 6.01851852,2.11111111 C7.36420426,0.703696667 9.35801148,-5.41365894e-15 12,0 C12.66667,-5.41365894e-15 13.33333,0.0246911111 14,0.0740740741 C14.66667,0.123457037 15.1604922,0.172839259 15.4814815,0.222222222 L16,0.296296296 L15.7777778,5.33333333 L12.3333333,5.33333333 C11.395057,5.33333333 10.7716065,5.55555333 10.462963,6 C10.1543194,6.44444667 10,7.11110667 10,8 L10,12 L16,12 L15.5925926,17.3333333 L10,17.3333333 L10,32 L4,32 Z"></path>
        </g>
    </g>
</svg>