<?xml version="1.0" encoding="UTF-8" standalone="no"?>
<svg width="32px" height="24px" viewBox="0 0 32 24" version="1.1" xmlns="http://www.w3.org/2000/svg" xmlns:xlink="http://www.w3.org/1999/xlink">
    <!-- Generator: Sketch 3.6.1 (26313) - http://www.bohemiancoding.com/sketch -->
    <title>email</title>
    <desc>Created with Sketch.</desc>
    <defs></defs>
    <g id="icons" stroke="none" stroke-width="1" fill="none" fill-rule="evenodd">
        <g id="email" fill="#000000">
            <path d="M32,2 L16,14 L0,2 C0,1.45678741 0.197528889,0.987656296 0.592592593,0.592592593 C0.987656296,0.197528889 1.45678741,5.41365894e-15 2,0 L30,0 C30.5432126,5.41365894e-15 31.0123437,0.197528889 31.4074074,0.592592593 C31.8024711,0.987656296 32,1.45678741 32,2 L32,2 Z M0,5.59259259 L16,17.5925926 L32,5.59259259 L32,22 C32,22.5432126 31.8024711,23.0123437 31.4074074,23.4074074 C31.0123437,23.8024711 30.5432126,24 30,24 L2,24 C1.45678741,24 0.987656296,23.8024711 0.592592593,23.4074074 C0.197528889,23.0123437 0,22.5432126 0,22 L0,5.59259259 Z"></path>
        </g>
    </g>
</svg>