<?xml version="1.0" encoding="UTF-8" standalone="no"?>
<svg width="30px" height="30px" viewBox="0 0 30 30" version="1.1" xmlns="http://www.w3.org/2000/svg" xmlns:xlink="http://www.w3.org/1999/xlink">
    <!-- Generator: Sketch 3.7.2 (28276) - http://www.bohemiancoding.com/sketch -->
    <title>facebook</title>
    <desc>Created with Sketch.</desc>
    <defs></defs>
    <g id="Author" stroke="none" stroke-width="1" fill="none" fill-rule="evenodd">
        <g id="author-v1" transform="translate(-163.000000, -455.000000)" fill="#1E3B69">
            <g id="Bio-Block" transform="translate(116.000000, 162.000000)">
                <g id="Social" transform="translate(-0.000000, 293.000000)">
                    <path d="M62,0 C66.120391,0 69.6504483,1.46989271 72.5902778,4.40972222 C75.5301073,7.34955174 77,10.879609 77,15 C77,19.1435392 75.5358943,22.6793835 72.6076389,25.6076389 C69.6793835,28.5358943 66.1435392,30 62,30 C57.8564608,30 54.3206165,28.5358943 51.3923611,25.6076389 C48.4641057,22.6793835 47,19.1435392 47,15 C47,10.8564608 48.4641057,7.32061649 51.3923611,4.39236111 C54.3206165,1.46410573 57.8564608,0 62,0 L62,0 Z M63.25,12.5347222 L63.25,9.82638889 C63.25,9.24768229 63.3483786,8.81944583 63.5451389,8.54166667 C63.7418991,8.2638875 64.1527747,8.125 64.7777778,8.125 L66.8263889,8.125 L67,4.58333333 C66.3055521,4.44444375 65.3564875,4.375 64.1527778,4.375 C62.416658,4.375 61.1030137,4.82638437 60.2118056,5.72916667 C59.3205974,6.63194896 58.875,7.75462292 58.875,9.09722222 L58.875,12.5 L56.375,12.5 L56.375,16.25 L58.875,16.25 L58.875,25.625 L63.25,25.625 L63.25,16.25 L66.7569444,16.25 L67,12.5347222 L63.25,12.5347222 Z" id="facebook"></path>
                </g>
            </g>
        </g>
    </g>
</svg>