<?xml version="1.0" encoding="UTF-8" standalone="no"?>
<svg width="18px" height="18px" viewBox="0 0 18 18" version="1.1" xmlns="http://www.w3.org/2000/svg" xmlns:xlink="http://www.w3.org/1999/xlink">
    <!-- Generator: Sketch 3.7.2 (28276) - http://www.bohemiancoding.com/sketch -->
    <title>phone</title>
    <desc>Created with Sketch.</desc>
    <defs></defs>
    <g id="Author" stroke="none" stroke-width="1" fill="none" fill-rule="evenodd">
        <g id="author-v1" transform="translate(-116.000000, -501.000000)" fill="#1E3B69">
            <g id="Bio-Block" transform="translate(116.000000, 162.000000)">
                <g id="Social" transform="translate(-0.000000, 293.000000)">
                    <path d="M17.9791743,48.2974062 C17.4654706,52.3931518 15.7438948,55.9022508 12.8143954,58.8248083 C9.88489597,61.7473658 6.37926795,63.4654706 2.29740618,63.9791743 C2.25575453,63.9930582 2.20716166,64 2.15162613,64 C2.08220671,64 2.03361385,63.9930582 2.00584608,63.9791743 C1.92254278,63.9375226 1.8531244,63.8681043 1.79758887,63.7709171 L0.0274025624,59.3142127 C-0.0420168556,59.0920706 0.0204596834,58.9324083 0.214834054,58.8352211 L5.12970427,56.377786 C5.2685431,56.2944827 5.4143217,56.3153082 5.56704441,56.4402632 L7.96200236,58.8560469 C9.94739771,57.6203812 11.5717877,55.9890494 12.8352211,53.9620024 L10.4402632,51.5670444 C10.3153082,51.4143217 10.2944827,51.2685431 10.377786,51.1297043 L12.8352211,46.2148341 C12.9324083,46.0204597 13.0920706,45.9579831 13.3142127,46.0274026 L17.7709171,47.7975889 C17.8681043,47.8531244 17.9305808,47.9225428 17.9583486,48.0058461 C17.9861163,48.0613816 18,48.1099745 18,48.1516261 C18,48.2071617 17.9930582,48.2557545 17.9791743,48.2974062 Z" id="phone"></path>
                </g>
            </g>
        </g>
    </g>
</svg>