<?xml version="1.0" encoding="UTF-8" standalone="no"?>
<svg width="30px" height="30px" viewBox="0 0 30 30" version="1.1" xmlns="http://www.w3.org/2000/svg" xmlns:xlink="http://www.w3.org/1999/xlink">
    <!-- Generator: Sketch 3.7.2 (28276) - http://www.bohemiancoding.com/sketch -->
    <title>email</title>
    <desc>Created with Sketch.</desc>
    <defs></defs>
    <g id="Author" stroke="none" stroke-width="1" fill="none" fill-rule="evenodd">
        <g id="author-v1" transform="translate(-257.000000, -455.000000)" fill="#1E3B69">
            <g id="Bio-Block" transform="translate(116.000000, 162.000000)">
                <g id="Social" transform="translate(-0.000000, 293.000000)">
                    <path d="M156,0 C160.120391,0 163.650448,1.46989271 166.590278,4.40972222 C169.530107,7.34955174 171,10.879609 171,15 C171,19.1435392 169.535894,22.6793835 166.607639,25.6076389 C163.679384,28.5358943 160.143539,30 156,30 C151.856461,30 148.320616,28.5358943 145.392361,25.6076389 C142.464106,22.6793835 141,19.1435392 141,15 C141,10.8564608 142.464106,7.32061649 145.392361,4.39236111 C148.320616,1.46410573 151.856461,0 156,0 L156,0 Z M165.375,20.6944444 L165.375,11.7361111 L156,18.75 L146.625,11.7361111 L146.625,20.6944444 C146.625,21.0185201 146.74074,21.2962951 146.972222,21.5277778 C147.203705,21.7592604 147.48148,21.875 147.805556,21.875 L164.194444,21.875 C164.51852,21.875 164.796295,21.7592604 165.027778,21.5277778 C165.25926,21.2962951 165.375,21.0185201 165.375,20.6944444 L165.375,20.6944444 Z M156,16.3194444 L165.375,9.30555556 C165.375,8.98147986 165.25926,8.70370486 165.027778,8.47222222 C164.796295,8.24073958 164.51852,8.125 164.194444,8.125 L147.805556,8.125 C147.48148,8.125 147.203705,8.24073958 146.972222,8.47222222 C146.74074,8.70370486 146.625,8.98147986 146.625,9.30555556 L156,16.3194444 Z" id="email"></path>
                </g>
            </g>
        </g>
    </g>
</svg>