<?xml version="1.0" encoding="UTF-8" standalone="no"?>
<svg width="32px" height="26px" viewBox="0 0 32 26" version="1.1" xmlns="http://www.w3.org/2000/svg" xmlns:xlink="http://www.w3.org/1999/xlink">
    <!-- Generator: Sketch 3.6.1 (26313) - http://www.bohemiancoding.com/sketch -->
    <title>twitter</title>
    <desc>Created with Sketch.</desc>
    <defs></defs>
    <g id="icons" stroke="none" stroke-width="1" fill="none" fill-rule="evenodd">
        <g id="twitter" fill="#000000">
            <path d="M28.7407407,6.48148148 L28.7407407,7.33333333 C28.7407407,9.08642852 28.4876569,10.8394974 27.9814815,12.5925926 C27.4753061,14.3456878 26.6975361,16.0308561 25.6481481,17.6481481 C24.5987602,19.2654402 23.3456863,20.6913519 21.8888889,21.9259259 C20.4320915,23.1605 18.6851954,24.1481444 16.6481481,24.8888889 C14.6111009,25.6296333 12.4197648,26 10.0740741,26 C6.12343704,26 2.76544593,25.11112 0,23.3333333 C0.518521111,23.4074078 1.03703444,23.4444444 1.55555556,23.4444444 C4.39507593,23.4444444 7.11109815,22.4074178 9.7037037,20.3333333 C8.29628926,20.3086419 7.03086981,19.8703746 5.90740741,19.0185185 C4.783945,18.1666624 4.01234778,17.0864263 3.59259259,15.7777778 C4.01234778,15.8518522 4.41975111,15.8888889 4.81481481,15.8888889 C5.40741037,15.8888889 5.98765148,15.8148156 6.55555556,15.6666667 C5.04937519,15.3703689 3.7963013,14.61729 2.7962963,13.4074074 C1.7962913,12.1975248 1.2962963,10.802477 1.2962963,9.22222222 C2.23457259,9.66666926 3.22221704,9.93827148 4.25925926,9.96296296 C2.30863222,8.65431444 1.33333333,6.83951778 1.33333333,4.51851852 C1.33333333,3.43209333 1.62962667,2.37037556 2.22222222,1.33333333 C3.87655148,3.33334333 5.8703587,4.91974722 8.2037037,6.09259259 C10.5370487,7.26543796 13.0493693,7.92592519 15.7407407,8.07407407 C15.6419748,7.65431889 15.5925926,7.14815111 15.5925926,6.55555556 C15.5925926,4.75307741 16.2283887,3.20988296 17.5,1.92592593 C18.7716113,0.641968889 20.3209785,0 22.1481481,0 C24.0247007,0 25.629623,0.691351111 26.962963,2.07407407 C28.4197604,1.7777763 29.8024626,1.24691741 31.1111111,0.481481481 C30.6172815,2.0617363 29.6543281,3.27160074 28.2222222,4.11111111 C29.4814878,3.96296222 30.7407344,3.61728667 32,3.07407407 C31.1111067,4.40741407 30.0246978,5.54320519 28.7407407,6.48148148 Z"></path>
        </g>
    </g>
</svg>