<?xml version="1.0" encoding="UTF-8" standalone="no"?>
<svg width="30px" height="30px" viewBox="0 0 30 30" version="1.1" xmlns="http://www.w3.org/2000/svg" xmlns:xlink="http://www.w3.org/1999/xlink">
    <!-- Generator: Sketch 3.7.2 (28276) - http://www.bohemiancoding.com/sketch -->
    <title>linkedin</title>
    <desc>Created with Sketch.</desc>
    <defs></defs>
    <g id="Author" stroke="none" stroke-width="1" fill="none" fill-rule="evenodd">
        <g id="author-v1" transform="translate(-210.000000, -455.000000)" fill="#1E3B69">
            <g id="Bio-Block" transform="translate(116.000000, 162.000000)">
                <g id="Social" transform="translate(-0.000000, 293.000000)">
                    <path d="M109,0 C113.143539,0 116.679384,1.46410573 119.607639,4.39236111 C122.535894,7.32061649 124,10.8564608 124,15 C124,19.1435392 122.535894,22.6793835 119.607639,25.6076389 C116.679384,28.5358943 113.143539,30 109,30 C104.856461,30 101.320616,28.5358943 98.3923611,25.6076389 C95.4641057,22.6793835 94,19.1435392 94,15 C94,10.8564608 95.4641057,7.32061649 98.3923611,4.39236111 C101.320616,1.46410573 104.856461,0 109,0 L109,0 Z M104.625,22.5 L104.625,11.875 L100.875,11.875 L100.875,22.5 L104.625,22.5 Z M102.75,10 C103.490744,10 104.09259,9.79166875 104.555556,9.375 C105.018521,8.95833125 105.25,8.43750312 105.25,7.8125 C105.226852,7.16434861 104.989586,6.63773351 104.538194,6.23263889 C104.086803,5.82754427 103.490744,5.625 102.75,5.625 C102.009256,5.625 101.40741,5.83333125 100.944444,6.25 C100.481479,6.66666875 100.25,7.18749688 100.25,7.8125 C100.25,8.43750312 100.475692,8.95833125 100.927083,9.375 C101.378474,9.79166875 101.974533,10 102.715278,10 L102.75,10 Z M118.375,22.5 L118.375,16.875 C118.375,15.1620285 117.981485,13.7963014 117.194444,12.7777778 C116.407403,11.7592542 115.342599,11.25 114,11.25 C113.259256,11.25 112.616901,11.4525443 112.072917,11.8576389 C111.528932,12.2627335 111.129631,12.8124965 110.875,13.5069444 L110.736111,11.875 L107.020833,11.875 L107.125,14.375 L107.125,22.5 L110.875,22.5 L110.875,16.875 C110.875,16.1111073 111.037035,15.5034745 111.361111,15.0520833 C111.685187,14.6006922 112.136571,14.375 112.715278,14.375 C113.988432,14.375 114.625,15.208325 114.625,16.875 L114.625,22.5 L118.375,22.5 Z" id="linkedin"></path>
                </g>
            </g>
        </g>
    </g>
</svg>